<svg width="23" height="23" viewBox="0 0 23 23" fill="none" xmlns="http://www.w3.org/2000/svg">
<path fill-rule="evenodd" clip-rule="evenodd" d="M21.2502 9.67019V19.3752C21.2502 21.1011 19.8511 22.5002 18.1252 22.5002H14.3752C14.03 22.5002 13.7502 22.2204 13.7502 21.8752V14.3752C13.7502 14.03 13.4703 13.7502 13.1252 13.7502H9.37517C9.02999 13.7502 8.75017 14.03 8.75017 14.3752V21.8752C8.75017 22.2204 8.47035 22.5002 8.12517 22.5002H4.37517C2.64928 22.5002 1.25017 21.1011 1.25017 19.3752V9.67019L1.02267 9.85769C0.75619 10.0772 0.362201 10.0392 0.142668 9.77269C-0.0768656 9.50622 -0.0388098 9.11223 0.227668 8.89269L10.8527 0.142694C11.0835 -0.0475648 11.4168 -0.0475648 11.6477 0.142694L22.2727 8.89269C22.445 9.03471 22.5286 9.2579 22.4918 9.47819C22.455 9.69848 22.3035 9.88241 22.0943 9.96069C21.8851 10.039 21.65 9.99971 21.4777 9.85769L21.2502 9.67019Z" fill="white"/>
</svg>
