<svg width="24" height="24" viewBox="0 0 24 24" fill="none" xmlns="http://www.w3.org/2000/svg">
<path fill-rule="evenodd" clip-rule="evenodd" d="M22.0002 10.4202V20.1252C22.0002 21.8511 20.6011 23.2502 18.8752 23.2502H15.1252C14.78 23.2502 14.5002 22.9704 14.5002 22.6252V15.1252C14.5002 14.78 14.2203 14.5002 13.8752 14.5002H10.1252C9.77999 14.5002 9.50017 14.78 9.50017 15.1252V22.6252C9.50017 22.9704 9.22035 23.2502 8.87517 23.2502H5.12517C3.39928 23.2502 2.00017 21.8511 2.00017 20.1252V10.4202L1.77267 10.6077C1.50619 10.8272 1.1122 10.7892 0.892668 10.5227C0.673134 10.2562 0.71119 9.86223 0.977668 9.64269L11.6027 0.892694C11.8335 0.702435 12.1668 0.702435 12.3977 0.892694L23.0227 9.64269C23.195 9.78471 23.2786 10.0079 23.2418 10.2282C23.205 10.4485 23.0535 10.6324 22.8443 10.7107C22.6351 10.789 22.4 10.7497 22.2277 10.6077L22.0002 10.4202Z" fill="#C9FC5F"/>
</svg>
